<svg width="193" height="193" xmlns="http://www.w3.org/2000/svg" xmlns:xlink="http://www.w3.org/1999/xlink" xml:space="preserve" overflow="hidden"><g transform="translate(-741 -249)"><g><g><g><g><path d="M139.651 131.969C137.09 137.885 134.059 143.332 130.547 148.339 125.759 155.164 121.839 159.889 118.818 162.513 114.135 166.819 109.118 169.025 103.745 169.15 99.8881 169.15 95.2365 168.053 89.822 165.826 84.3895 163.61 79.3973 162.513 74.8325 162.513 70.045 162.513 64.9106 163.61 59.4187 165.826 53.9184 168.053 49.4873 169.213 46.0994 169.328 40.9473 169.547 35.8118 167.279 30.6856 162.513 27.4138 159.659 23.3215 154.767 18.4191 147.837 13.1592 140.436 8.83481 131.854 5.44702 122.07 1.81881 111.503 0 101.269 0 91.3617 0 80.0129 2.45226 70.2249 7.36409 62.0225 11.2244 55.434 16.3599 50.2367 22.7874 46.4214 29.2149 42.6062 36.1597 40.6618 43.6388 40.5375 47.7312 40.5375 53.0977 41.8033 59.7666 44.2912 66.4168 46.7872 70.6869 48.0532 72.559 48.0532 73.9586 48.0532 78.7022 46.5731 86.7436 43.6222 94.348 40.8855 100.766 39.7525 106.024 40.1989 120.271 41.3487 130.975 46.965 138.094 57.0834 125.351 64.804 119.048 75.6175 119.174 89.4896 119.289 100.295 123.209 109.286 130.913 116.426 134.404 119.739 138.303 122.3 142.641 124.119 141.7 126.847 140.707 129.46 139.651 131.969ZM106.975 3.38781C106.975 11.8569 103.881 19.7644 97.7139 27.0835 90.2715 35.7846 81.2694 40.8125 71.5073 40.0191 71.383 39.0029 71.311 37.9337 71.311 36.81 71.311 28.6797 74.8503 19.9787 81.1356 12.8644 84.2736 9.26236 88.2646 6.26728 93.1042 3.87804 97.9335 1.52447 102.501 0.22289 106.798 0 106.923 1.13218 106.975 2.26443 106.975 3.38771Z" fill="#B3B3B3" fill-rule="nonzero" fill-opacity="1" transform="matrix(1 0 0 1.00337 768.282 263.43)"/></g></g></g></g></g></svg>