<svg width="194" height="193" xmlns="http://www.w3.org/2000/svg" xmlns:xlink="http://www.w3.org/1999/xlink" xml:space="preserve" overflow="hidden"><defs><clipPath id="clip0"><rect x="326" y="249" width="194" height="193"/></clipPath><clipPath id="clip1"><rect x="326" y="249" width="194" height="193"/></clipPath><clipPath id="clip2"><rect x="327" y="250" width="192" height="192"/></clipPath><clipPath id="clip3"><rect x="327" y="250" width="192" height="192"/></clipPath><clipPath id="clip4"><rect x="327" y="250" width="192" height="192"/></clipPath><clipPath id="clip5"><rect x="327" y="250" width="192" height="193"/></clipPath><clipPath id="clip6"><rect x="327" y="250" width="192" height="193"/></clipPath><clipPath id="clip7"><rect x="327" y="251" width="192" height="192"/></clipPath></defs><g clip-path="url(#clip0)" transform="translate(-326 -249)"><g clip-path="url(#clip1)"><g clip-path="url(#clip2)"><g clip-path="url(#clip3)"><g clip-path="url(#clip4)"><g clip-path="url(#clip5)"><g clip-path="url(#clip6)"><g clip-path="url(#clip7)"><path d="M294.571 30.2125 294.571 120.849 278.836 120.849 278.836 49.7247 278.626 49.7247 250.512 120.849 240.022 120.849 211.278 49.7247 211.068 49.7247 211.068 120.849 196.59 120.849 196.59 30.2125 219.25 30.2125 245.267 97.3513 245.686 97.3513 273.171 30.2125ZM307.58 37.1361C307.58 34.6184 308.419 32.5204 310.308 30.8419 312.195 29.1635 314.293 28.3242 316.811 28.3242 319.538 28.3242 321.847 29.1635 323.525 30.8419 325.204 32.5204 326.253 34.6184 326.253 37.1361 326.253 39.6539 325.414 41.7519 323.525 43.4304 321.637 45.1089 319.538 45.9481 316.811 45.9481 314.083 45.9481 311.986 45.1089 310.308 43.4304 308.628 41.5422 307.58 39.444 307.58 37.1361ZM324.575 55.8091 324.575 120.849 309.258 120.849 309.258 55.8091ZM370.942 109.73C373.25 109.73 375.767 109.31 378.495 108.052 381.223 107.002 383.74 105.534 386.049 103.855L386.049 118.122C383.53 119.591 380.802 120.641 377.656 121.27 374.509 121.899 371.151 122.319 367.376 122.319 357.723 122.319 349.961 119.381 344.087 113.297 338.002 107.212 335.065 99.4493 335.065 90.2178 335.065 79.7273 338.211 71.1251 344.296 64.4113 350.381 57.6974 358.983 54.3405 370.312 54.3405 373.25 54.3405 376.187 54.7601 378.915 55.3895 381.852 56.0189 384.16 57.0679 385.839 57.9072L385.839 72.5938C383.53 70.9154 381.012 69.4467 378.705 68.6075 376.187 67.7682 373.669 67.1388 371.151 67.1388 365.067 67.1388 360.242 69.0271 356.465 73.0134 352.688 76.9997 351.01 82.2451 351.01 88.9589 351.01 95.463 352.899 100.708 356.465 104.275 360.032 107.842 364.857 109.73 370.942 109.73ZM429.479 54.7601C430.737 54.7601 431.786 54.7601 432.835 54.9699 433.885 55.1796 434.724 55.3895 435.353 55.5993L435.353 71.1251C434.514 70.4957 433.464 69.8664 431.786 69.4467 430.108 69.0271 428.429 68.6075 426.122 68.6075 422.345 68.6075 419.197 70.2859 416.68 73.433 414.162 76.5802 412.694 81.4058 412.694 88.1197L412.694 120.849 397.378 120.849 397.378 55.8091 412.694 55.8091 412.694 66.0898 412.903 66.0898C414.373 62.523 416.47 59.7955 419.197 57.6974 422.135 55.8091 425.492 54.7601 429.479 54.7601ZM436.192 89.3785C436.192 78.6783 439.34 70.0761 445.214 63.7819 451.298 57.4876 459.691 54.3405 470.391 54.3405 480.462 54.3405 488.435 57.2778 494.099 63.3623 499.765 69.4467 502.702 77.6292 502.702 87.9099 502.702 98.4003 499.554 106.793 493.68 113.087 487.596 119.381 479.413 122.528 468.923 122.528 458.852 122.528 450.879 119.591 445.004 113.716 439.13 107.632 436.192 99.4493 436.192 89.3785ZM452.137 88.7491C452.137 95.463 453.607 100.708 456.753 104.275 459.901 107.842 464.307 109.73 469.971 109.73 475.426 109.73 479.832 108.052 482.77 104.275 485.708 100.708 487.176 95.463 487.176 88.3295 487.176 81.4058 485.708 76.1606 482.77 72.384 479.832 68.8172 475.426 66.929 470.181 66.929 464.516 66.929 460.32 68.8172 457.174 72.5938 453.607 76.5802 452.137 81.8254 452.137 88.7491ZM525.571 73.0134C525.571 75.1116 526.2 76.9997 527.669 78.2586 529.138 79.5175 532.075 80.9862 536.9 82.8745 542.985 85.3921 547.391 88.1197 549.699 91.057 552.217 94.2041 553.476 97.7708 553.476 102.177 553.476 108.261 551.167 113.087 546.342 116.864 541.726 120.641 535.222 122.319 527.249 122.319 524.522 122.319 521.584 121.899 518.227 121.27 514.871 120.641 512.143 119.8 509.836 118.752L509.836 103.645C512.563 105.534 515.71 107.212 518.857 108.261 522.004 109.31 524.942 109.94 527.669 109.94 531.026 109.94 533.754 109.52 535.222 108.471 536.9 107.422 537.74 105.953 537.74 103.645 537.74 101.547 536.9 99.869 535.222 98.1905 533.544 96.7218 530.187 95.0434 525.571 93.1551 519.906 90.8472 515.92 88.1197 513.611 85.1824 511.304 82.2451 510.045 78.4685 510.045 73.8527 510.045 67.9781 512.353 63.1524 516.969 59.3758 521.584 55.5993 527.669 53.711 535.012 53.711 537.32 53.711 539.838 53.9209 542.566 54.5503 545.293 55.1796 547.811 55.8091 549.699 56.4385L549.699 71.335C547.601 70.0761 545.293 68.8172 542.566 67.7682 539.838 66.7192 537.11 66.2996 534.593 66.2996 531.655 66.2996 529.348 66.929 527.878 67.9781 526.41 69.4467 525.571 70.9154 525.571 73.0134ZM559.979 89.3785C559.979 78.6783 563.127 70.0761 569.001 63.7819 575.085 57.4876 583.478 54.3405 594.178 54.3405 604.25 54.3405 612.222 57.2778 617.886 63.3623 623.552 69.4467 626.489 77.6292 626.489 87.9099 626.489 98.4003 623.342 106.793 617.467 113.087 611.383 119.381 603.2 122.528 592.71 122.528 582.639 122.528 574.666 119.591 568.791 113.716 563.127 107.632 559.979 99.4493 559.979 89.3785ZM575.925 88.7491C575.925 95.463 577.394 100.708 580.541 104.275 583.688 107.842 588.094 109.73 593.758 109.73 599.214 109.73 603.619 108.052 606.557 104.275 609.495 100.708 610.963 95.463 610.963 88.3295 610.963 81.4058 609.495 76.1606 606.557 72.384 603.619 68.8172 599.214 66.929 593.968 66.929 588.303 66.929 584.107 68.8172 580.961 72.5938 577.603 76.5802 575.925 81.8254 575.925 88.7491ZM677.472 68.3976 654.603 68.3976 654.603 120.849 639.078 120.849 639.078 68.3976 628.168 68.3976 628.168 55.8091 639.078 55.8091 639.078 46.7874C639.078 40.0735 641.385 34.4087 645.791 30.0026 650.197 25.5967 655.863 23.4986 662.786 23.4986 664.674 23.4986 666.353 23.7084 667.821 23.7084 669.29 23.7084 670.549 24.128 671.598 24.5476L671.598 37.7656C671.178 37.5557 670.13 37.1361 668.87 36.7166 667.611 36.2969 666.143 36.0871 664.464 36.0871 661.318 36.0871 658.799 37.1361 657.121 39.0244 655.442 40.9127 654.603 44.0598 654.603 47.8364L654.603 55.5993 677.472 55.5993 677.472 40.9127 692.788 36.2969 692.788 55.5993 708.315 55.5993 708.315 68.1878 692.788 68.1878 692.788 98.6101C692.788 102.596 693.627 105.324 694.887 107.002 696.355 108.681 698.664 109.52 701.81 109.52 702.649 109.52 703.699 109.31 704.958 108.891 706.216 108.471 707.265 108.052 708.105 107.422L708.105 120.01C707.055 120.641 705.587 121.06 703.278 121.48 700.971 121.899 698.872 122.109 696.565 122.109 690.061 122.109 685.236 120.43 682.088 117.074 678.941 113.716 677.263 108.471 677.263 101.547Z" fill="#737373" fill-rule="nonzero" fill-opacity="1" transform="matrix(1.0059 0 0 1 347.613 267.164)"/><path d="M0 0 71.7545 0 71.7545 71.7545 0 71.7545Z" fill="#F25022" fill-rule="nonzero" fill-opacity="1" transform="matrix(1.0059 0 0 1 347.613 267.164)"/><path d="M79.3078 0 151.062 0 151.062 71.7545 79.3078 71.7545Z" fill="#7FBA00" fill-rule="nonzero" fill-opacity="1" transform="matrix(1.0059 0 0 1 347.613 267.164)"/><path d="M0 79.3078 71.7545 79.3078 71.7545 151.062 0 151.062Z" fill="#00A4EF" fill-rule="nonzero" fill-opacity="1" transform="matrix(1.0059 0 0 1 347.613 267.164)"/><path d="M79.3078 79.3078 151.062 79.3078 151.062 151.062 79.3078 151.062Z" fill="#FFB900" fill-rule="nonzero" fill-opacity="1" transform="matrix(1.0059 0 0 1 347.613 267.164)"/></g></g></g></g></g></g></g></g></svg>