<svg width="193" height="193" xmlns="http://www.w3.org/2000/svg" xmlns:xlink="http://www.w3.org/1999/xlink" xml:space="preserve" overflow="hidden"><defs><clipPath id="clip0"><rect x="948" y="249" width="193" height="193"/></clipPath><clipPath id="clip1"><rect x="948" y="249" width="193" height="193"/></clipPath><clipPath id="clip2"><rect x="949" y="250" width="192" height="192"/></clipPath><clipPath id="clip3"><rect x="949" y="250" width="192" height="192"/></clipPath><clipPath id="clip4"><rect x="949" y="250" width="192" height="192"/></clipPath><clipPath id="clip5"><rect x="949" y="250" width="192" height="192"/></clipPath><clipPath id="clip6"><rect x="949" y="250" width="192" height="192"/></clipPath><clipPath id="clip7"><rect x="950" y="251" width="190" height="191"/></clipPath><clipPath id="clip8"><rect x="950" y="251" width="190" height="191"/></clipPath><clipPath id="clip9"><rect x="950" y="251" width="190" height="191"/></clipPath></defs><g clip-path="url(#clip0)" transform="translate(-948 -249)"><g clip-path="url(#clip1)"><g clip-path="url(#clip2)"><g clip-path="url(#clip3)"><g clip-path="url(#clip4)"><g clip-path="url(#clip5)"><g clip-path="url(#clip6)"><g clip-path="url(#clip7)"><g clip-path="url(#clip8)"><g clip-path="url(#clip9)"><path d="M1181.43 474.168C1181.43 526.105 1139.33 568.208 1087.39 568.208 1035.46 568.208 993.351 526.105 993.351 474.168 993.351 422.232 1035.46 380.127 1087.39 380.127 1139.33 380.127 1181.43 422.232 1181.43 474.168Z" fill="#76B900" fill-rule="nonzero" fill-opacity="1" transform="matrix(1 0 0 1.01031 -42.3469 -132.021)"/><path d="M1072.39 460.328 1072.39 454.147C1072.99 454.104 1073.6 454.07 1074.21 454.053 1091.11 453.522 1102.21 468.58 1102.21 468.58 1102.21 468.58 1090.23 485.217 1077.39 485.217 1075.69 485.223 1074 484.955 1072.39 484.418L1072.39 465.674C1078.97 466.468 1080.29 469.375 1084.25 475.97L1093.05 468.551C1093.05 468.551 1086.62 460.124 1075.8 460.124 1074.66 460.13 1073.52 460.197 1072.39 460.326M1072.39 439.907 1072.39 449.143C1073 449.094 1073.61 449.057 1074.22 449.035 1097.73 448.244 1113.04 468.319 1113.04 468.319 1113.04 468.319 1095.44 489.704 1077.12 489.704 1075.53 489.704 1073.95 489.565 1072.39 489.287L1072.39 494.996C1073.7 495.162 1075.01 495.244 1076.33 495.244 1093.38 495.244 1105.71 486.536 1117.65 476.227 1119.63 477.814 1127.74 481.669 1129.41 483.36 1118.05 492.866 1091.59 500.528 1076.59 500.528 1075.14 500.528 1073.75 500.442 1072.39 500.311L1072.39 508.332 1137.21 508.332 1137.21 439.909ZM1072.39 484.414 1072.39 489.285C1056.62 486.477 1052.24 470.083 1052.24 470.083 1052.24 470.083 1059.81 461.689 1072.39 460.332L1072.39 465.674 1072.37 465.674C1065.77 464.881 1060.61 471.047 1060.61 471.047 1060.61 471.047 1063.5 481.428 1072.4 484.418M1044.37 469.368C1044.37 469.368 1053.72 455.571 1072.38 454.147L1072.38 449.143C1051.71 450.796 1033.81 468.311 1033.81 468.311 1033.81 468.311 1043.95 497.633 1072.39 500.315L1072.39 494.988C1051.52 492.368 1044.37 469.368 1044.37 469.368" fill="#FFFFFF" fill-rule="nonzero" fill-opacity="1" transform="matrix(1 0 0 1.01031 -42.3469 -132.021)"/></g></g></g></g></g></g></g></g></g></g></svg>