<svg width="194" height="193" xmlns="http://www.w3.org/2000/svg" xmlns:xlink="http://www.w3.org/1999/xlink" xml:space="preserve" overflow="hidden"><defs><clipPath id="clip0"><rect x="534" y="249" width="194" height="193"/></clipPath><clipPath id="clip1"><rect x="534" y="249" width="194" height="193"/></clipPath><clipPath id="clip2"><rect x="535" y="250" width="192" height="192"/></clipPath><clipPath id="clip3"><rect x="535" y="250" width="192" height="192"/></clipPath><clipPath id="clip4"><rect x="535" y="250" width="192" height="192"/></clipPath><clipPath id="clip5"><rect x="535" y="250" width="192" height="192"/></clipPath><clipPath id="clip6"><rect x="535" y="250" width="192" height="192"/></clipPath><clipPath id="clip7"><rect x="536" y="251" width="191" height="191"/></clipPath><clipPath id="clip8"><rect x="536" y="251" width="191" height="191"/></clipPath></defs><g clip-path="url(#clip0)" transform="translate(-534 -249)"><g clip-path="url(#clip1)"><g clip-path="url(#clip2)"><g clip-path="url(#clip3)"><g clip-path="url(#clip4)"><g clip-path="url(#clip5)"><g clip-path="url(#clip6)"><g clip-path="url(#clip7)"><g clip-path="url(#clip8)"><path d="M145.834 207.338 145.834 220.76 150.138 220.76 150.138 211.824 165.804 211.824 165.804 220.76 170.105 220.76 170.105 207.36 145.834 207.338M149.659 202.995 166.21 202.995C168.509 202.538 170.218 200.509 170.7 198.548L145.169 198.548C145.646 200.511 147.381 202.538 149.659 202.995M132.798 220.768C134.968 219.848 136.135 218.257 136.583 216.394L117.277 216.394 117.289 198.558 112.962 198.572 112.962 220.768 132.798 220.768M80.7793 202.936 96.0649 202.936C98.3693 202.267 100.304 200.511 100.776 198.564L76.4946 198.564 76.4946 211.683 96.3682 211.683 96.3682 216.285 80.7793 216.297C78.3364 216.98 76.2648 218.619 75.2315 220.786L76.4946 220.762 100.638 220.762 100.638 207.32 80.7793 207.32 80.7793 202.936M43.0444 202.978 59.5901 202.978C61.8919 202.518 63.6029 200.492 64.0825 198.528L38.552 198.528C39.0287 200.492 40.7646 202.518 43.0444 202.978M43.0444 211.75 59.5901 211.75C61.8919 211.297 63.6029 209.268 64.0825 207.303L38.552 207.303C39.0287 209.268 40.7646 211.297 43.0444 211.75M43.0444 220.766 59.5901 220.766C61.8919 220.309 63.6029 218.28 64.0825 216.317L38.552 216.317C39.0287 218.28 40.7646 220.309 43.0444 220.766M0 198.581C0.497391 200.521 2.177 202.505 4.48142 203.001L11.4461 203.001 11.8014 203.142 11.8014 220.717 16.1505 220.717 16.1505 203.142 16.5456 203.001 23.5164 203.001C25.8466 202.402 27.49 200.521 27.9788 198.581L27.9788 198.538 0 198.538 0 198.581" fill="#E82127" fill-rule="nonzero" fill-opacity="1" transform="matrix(1.01946 0 0 1 546.845 266.082)"/><path d="M85.3588 154.67 107.089 32.4547C127.803 32.4547 134.336 34.7261 135.28 43.9969 135.28 43.9969 149.175 38.8161 156.183 28.2937 128.835 15.6212 101.357 15.0497 101.357 15.0497L85.3226 34.579 85.3588 34.5766 69.3247 15.0467C69.3247 15.0467 41.8457 15.6188 14.5015 28.2913 21.5036 38.8135 35.4042 43.9945 35.4042 43.9945 36.3529 34.7229 42.8785 32.4516 63.4528 32.4369L85.3588 154.67" fill="#E82127" fill-rule="nonzero" fill-opacity="1" transform="matrix(1.01946 0 0 1 546.845 266.082)"/><path d="M85.3501 9.40875C107.457 9.23969 132.761 12.8286 158.664 24.1186 162.127 17.8871 163.017 15.133 163.017 15.133 134.7 3.93012 108.182 0.0961702 85.3472 0 62.513 0.0961702 35.9964 3.93073 7.68382 15.133 7.68382 15.133 8.9469 18.5253 12.0329 24.1186 37.9315 12.8286 63.2397 9.23969 85.3472 9.40875L85.3501 9.40875" fill="#E82127" fill-rule="nonzero" fill-opacity="1" transform="matrix(1.01946 0 0 1 546.845 266.082)"/></g></g></g></g></g></g></g></g></g></svg>